<svg width="40" height="40" viewBox="0 0 40 40" fill="none" xmlns="http://www.w3.org/2000/svg">
    <path d="M40 9.28576C40.0002 10.1091 39.7159 10.9072 39.1952 11.545C38.6746 12.1828 37.9495 12.6211 37.1429 12.7858V35.7143C37.1395 36.8499 36.6868 37.938 35.8839 38.741C35.0809 39.544 33.9927 39.9966 32.8571 40H25.7143C25.3354 40 24.972 39.8495 24.7041 39.5816C24.4362 39.3137 24.2857 38.9503 24.2857 38.5714C24.2857 38.1926 24.4362 37.8292 24.7041 37.5613C24.972 37.2934 25.3354 37.1429 25.7143 37.1429H32.8571C33.236 37.1429 33.5994 36.9924 33.8673 36.7244C34.1352 36.4565 34.2857 36.0932 34.2857 35.7143V11.4286C34.2857 11.0497 34.4362 10.6864 34.7041 10.4185C34.972 10.1506 35.3354 10 35.7143 10H36.4286C36.618 10 36.7997 9.92479 36.9336 9.79084C37.0676 9.65688 37.1429 9.4752 37.1429 9.28576C37.1429 9.09632 37.0676 8.91464 36.9336 8.78068C36.7997 8.64673 36.618 8.57147 36.4286 8.57147H30C29.6211 8.57147 29.2578 8.42096 28.9898 8.15306C28.7219 7.88515 28.5714 7.52179 28.5714 7.14291C28.5714 6.76403 28.7219 6.40066 28.9898 6.13275C29.2578 5.86485 29.6211 5.71434 30 5.71434H34.2857V4.28577C34.2857 3.90689 34.1352 3.54353 33.8673 3.27562C33.5994 3.00771 33.236 2.8572 32.8571 2.8572H20C19.6211 2.8572 19.2578 3.00771 18.9898 3.27562C18.7219 3.54353 18.5714 3.90689 18.5714 4.28577V11.4286C18.5714 11.8075 18.4209 12.1709 18.153 12.4388C17.8851 12.7067 17.5217 12.8572 17.1429 12.8572H10C9.62112 12.8572 9.25776 13.0077 8.98985 13.2756C8.72194 13.5435 8.57143 13.9069 8.57143 14.2858V15.7143C8.57143 16.0932 8.42092 16.4566 8.15301 16.7245C7.8851 16.9924 7.52174 17.1429 7.14286 17.1429C6.76398 17.1429 6.40061 16.9924 6.1327 16.7245C5.8648 16.4566 5.71429 16.0932 5.71429 15.7143V12.6143C5.71131 12.0512 5.82099 11.4931 6.03689 10.973C6.25278 10.4529 6.57053 9.98125 6.97143 9.58576L15.3 1.2572C15.6955 0.856303 16.1672 0.538557 16.6873 0.322661C17.2074 0.106765 17.7654 -0.0029204 18.3286 5.91115e-05H32.8571C33.9927 0.00345066 35.0809 0.456068 35.8839 1.25906C36.6868 2.06205 37.1395 3.15017 37.1429 4.28577V5.78576C37.9495 5.95043 38.6746 6.38875 39.1952 7.02655C39.7159 7.66434 40.0002 8.46244 40 9.28576ZM22.8571 24.2857V35.7143C22.8538 36.8499 22.4011 37.938 21.5981 38.741C20.7951 39.544 19.707 39.9966 18.5714 40H4.28571C3.15012 39.9966 2.062 39.544 1.259 38.741C0.45601 37.938 0.00339156 36.8499 0 35.7143V24.2857C0.00339156 23.1501 0.45601 22.062 1.259 21.259C2.062 20.456 3.15012 20.0034 4.28571 20H5.71429C5.71429 19.6211 5.8648 19.2578 6.1327 18.9899C6.40061 18.722 6.76398 18.5715 7.14286 18.5715C7.52174 18.5715 7.8851 18.722 8.15301 18.9899C8.42092 19.2578 8.57143 19.6211 8.57143 20H14.2857C14.2857 19.6211 14.4362 19.2578 14.7041 18.9899C14.972 18.722 15.3354 18.5715 15.7143 18.5715C16.0932 18.5715 16.4565 18.722 16.7244 18.9899C16.9923 19.2578 17.1429 19.6211 17.1429 20H18.5714C19.707 20.0034 20.7951 20.456 21.5981 21.259C22.4011 22.062 22.8538 23.1501 22.8571 24.2857ZM8.57143 32.8572C8.57143 32.5746 8.48764 32.2984 8.33067 32.0635C8.1737 31.8286 7.95058 31.6454 7.68955 31.5373C7.42851 31.4292 7.14127 31.4009 6.86416 31.456C6.58704 31.5112 6.33249 31.6472 6.1327 31.847C5.93292 32.0468 5.79686 32.3013 5.74173 32.5785C5.68661 32.8556 5.7149 33.1428 5.82303 33.4038C5.93115 33.6649 6.11426 33.888 6.34919 34.045C6.58411 34.2019 6.86031 34.2857 7.14286 34.2857C7.52174 34.2857 7.8851 34.1352 8.15301 33.8673C8.42092 33.5994 8.57143 33.236 8.57143 32.8572ZM8.57143 27.1429C8.57143 26.8603 8.48764 26.5841 8.33067 26.3492C8.1737 26.1143 7.95058 25.9312 7.68955 25.823C7.42851 25.7149 7.14127 25.6866 6.86416 25.7418C6.58704 25.7969 6.33249 25.9329 6.1327 26.1327C5.93292 26.3325 5.79686 26.5871 5.74173 26.8642C5.68661 27.1413 5.7149 27.4285 5.82303 27.6896C5.93115 27.9506 6.11426 28.1737 6.34919 28.3307C6.58411 28.4877 6.86031 28.5714 7.14286 28.5714C7.52174 28.5714 7.8851 28.4209 8.15301 28.153C8.42092 27.8851 8.57143 27.5218 8.57143 27.1429ZM12.8571 32.8572C12.8571 32.5746 12.7734 32.2984 12.6164 32.0635C12.4594 31.8286 12.2363 31.6454 11.9753 31.5373C11.7142 31.4292 11.427 31.4009 11.1499 31.456C10.8728 31.5112 10.6182 31.6472 10.4184 31.847C10.2186 32.0468 10.0826 32.3013 10.0274 32.5785C9.97233 32.8556 10.0006 33.1428 10.1087 33.4038C10.2169 33.6649 10.4 33.888 10.6349 34.045C10.8698 34.2019 11.146 34.2857 11.4286 34.2857C11.8075 34.2857 12.1708 34.1352 12.4387 33.8673C12.7066 33.5994 12.8571 33.236 12.8571 32.8572ZM12.8571 27.1429C12.8571 26.8603 12.7734 26.5841 12.6164 26.3492C12.4594 26.1143 12.2363 25.9312 11.9753 25.823C11.7142 25.7149 11.427 25.6866 11.1499 25.7418C10.8728 25.7969 10.6182 25.9329 10.4184 26.1327C10.2186 26.3325 10.0826 26.5871 10.0274 26.8642C9.97233 27.1413 10.0006 27.4285 10.1087 27.6896C10.2169 27.9506 10.4 28.1737 10.6349 28.3307C10.8698 28.4877 11.146 28.5714 11.4286 28.5714C11.8075 28.5714 12.1708 28.4209 12.4387 28.153C12.7066 27.8851 12.8571 27.5218 12.8571 27.1429ZM17.1429 32.8572C17.1429 32.5746 17.0591 32.2984 16.9021 32.0635C16.7451 31.8286 16.522 31.6454 16.261 31.5373C15.9999 31.4292 15.7127 31.4009 15.4356 31.456C15.1585 31.5112 14.9039 31.6472 14.7041 31.847C14.5043 32.0468 14.3683 32.3013 14.3132 32.5785C14.258 32.8556 14.2863 33.1428 14.3945 33.4038C14.5026 33.6649 14.6857 33.888 14.9206 34.045C15.1555 34.2019 15.4317 34.2857 15.7143 34.2857C16.0932 34.2857 16.4565 34.1352 16.7244 33.8673C16.9923 33.5994 17.1429 33.236 17.1429 32.8572ZM17.1429 27.1429C17.1429 26.8603 17.0591 26.5841 16.9021 26.3492C16.7451 26.1143 16.522 25.9312 16.261 25.823C15.9999 25.7149 15.7127 25.6866 15.4356 25.7418C15.1585 25.7969 14.9039 25.9329 14.7041 26.1327C14.5043 26.3325 14.3683 26.5871 14.3132 26.8642C14.258 27.1413 14.2863 27.4285 14.3945 27.6896C14.5026 27.9506 14.6857 28.1737 14.9206 28.3307C15.1555 28.4877 15.4317 28.5714 15.7143 28.5714C16.0932 28.5714 16.4565 28.4209 16.7244 28.153C16.9923 27.8851 17.1429 27.5218 17.1429 27.1429Z" fill="url(#paint0_linear_304_1040)"/>
    <defs>
        <linearGradient id="paint0_linear_304_1040" x1="7.56429" y1="8.9929" x2="36.5985" y2="38.0272" gradientUnits="userSpaceOnUse">
            <stop stop-color="#24E896"/>
            <stop offset="0.484375" stop-color="#1080FF"/>
            <stop offset="1" stop-color="#513FF3"/>
        </linearGradient>
    </defs>
</svg>